<svg width="21" height="26" viewBox="0 0 21 26" fill="none" xmlns="http://www.w3.org/2000/svg">
<path d="M20.3428 11.3149C20.3428 12.9556 20.1318 14.438 19.71 15.7622C19.2881 17.0747 18.6963 18.2466 17.9346 19.2778C17.1846 20.2974 16.2881 21.1763 15.2451 21.9146C14.2021 22.6528 13.0596 23.2622 11.8174 23.7427C10.5752 24.2114 9.25098 24.563 7.84473 24.7974C6.4502 25.02 5.01465 25.1313 3.53809 25.1313C2.9873 25.1313 2.44824 25.1196 1.9209 25.0962C1.39355 25.061 0.854492 25.0142 0.303711 24.9556L0.795898 1.36572C2.08496 0.955566 3.40918 0.668457 4.76855 0.504395C6.13965 0.328613 7.49902 0.240723 8.84668 0.240723C10.5225 0.240723 12.0635 0.492676 13.4697 0.996582C14.876 1.50049 16.0889 2.22705 17.1084 3.17627C18.1279 4.12549 18.9189 5.28564 19.4814 6.65674C20.0557 8.02783 20.3428 9.58057 20.3428 11.3149ZM13.1357 12.4399C13.1475 11.8071 13.0771 11.1978 12.9248 10.6118C12.7842 10.0259 12.5439 9.51025 12.2041 9.06494C11.876 8.60791 11.4541 8.24463 10.9385 7.9751C10.4229 7.69385 9.80762 7.5415 9.09277 7.51807L8.38965 18.4165C9.09277 18.311 9.73145 18.0825 10.3057 17.731C10.8799 17.3677 11.3721 16.9282 11.7822 16.4126C12.2041 15.8853 12.5264 15.3052 12.749 14.6724C12.9834 14.0278 13.1123 13.3657 13.1357 12.686V12.4399Z" fill="#0284C7"/>
</svg>
